<?xml version="1.0" standalone="no"?>
<!DOCTYPE svg PUBLIC "-//W3C//DTD SVG 20010904//EN"
 "http://www.w3.org/TR/2001/REC-SVG-20010904/DTD/svg10.dtd">
<svg version="1.0" xmlns="http://www.w3.org/2000/svg"
 width="434.000000pt" height="363.000000pt" viewBox="0 0 434.000000 363.000000"
 preserveAspectRatio="xMidYMid meet">

<g transform="translate(0.000000,363.000000) scale(0.100000,-0.100000)"
fill="#000000" stroke="none">
<path d="M665 3618 c-260 -48 -422 -147 -539 -330 -60 -95 -86 -166 -111 -313
-13 -75 -13 -95 0 -172 21 -123 32 -159 72 -238 77 -153 175 -252 328 -328 79
-40 115 -51 238 -72 78 -13 96 -13 174 0 122 21 158 32 238 72 88 44 98 51
118 91 l16 33 -49 -36 c-108 -80 -277 -135 -410 -135 -100 0 -207 27 -310 77
-79 39 -109 61 -181 132 -71 72 -93 102 -132 181 -102 208 -102 409 0 620 38
79 59 108 132 181 73 73 102 94 181 132 211 102 412 102 620 0 79 -39 109 -61
181 -132 71 -72 93 -102 132 -181 72 -147 93 -295 63 -438 l-13 -63 22 27 c64
81 44 316 -42 489 -77 153 -175 252 -328 328 -79 39 -115 50 -236 72 -94 16
-94 16 -164 3z"/>
<path d="M455 3371 c-61 -37 -92 -102 -80 -169 5 -29 2 -42 -10 -52 -51 -42
-62 -149 -20 -198 31 -37 75 -55 119 -50 24 3 32 0 29 -9 -3 -7 10 -28 29 -47
61 -61 158 -58 215 7 27 30 34 33 85 33 59 -1 114 26 112 55 -1 11 11 13 46
11 58 -5 118 23 152 70 19 28 23 45 23 109 0 67 -3 80 -27 111 -37 49 -101 73
-171 65 -45 -6 -54 -4 -65 13 -32 52 -156 67 -202 25 -20 -18 -21 -18 -43 2
-12 11 -32 26 -44 32 -34 17 -114 13 -148 -8z m155 -206 c0 -23 2 -24 20 -13
15 10 24 10 39 1 12 -7 22 -8 28 -2 5 5 26 10 46 11 20 1 38 7 41 15 6 15 46
18 46 3 0 -5 -8 -10 -17 -10 -14 0 -15 -2 -4 -9 7 -5 22 -6 32 -4 11 3 27 -1
36 -8 14 -12 16 -12 11 1 -4 12 3 15 36 13 22 -1 52 -2 64 -2 25 -1 26 -26 1
-26 -7 0 -15 -8 -17 -17 -2 -12 3 -18 17 -18 12 0 21 8 23 21 2 12 11 27 21
33 27 17 52 -4 54 -48 1 -33 -1 -36 -26 -36 -15 0 -32 5 -39 12 -9 9 -12 9
-12 0 0 -7 -11 -12 -25 -12 -26 0 -50 32 -41 55 3 9 0 12 -10 8 -11 -4 -15
-16 -12 -38 3 -27 1 -31 -14 -27 -10 2 -18 8 -18 13 0 5 -9 4 -20 -3 -27 -17
-53 0 -61 38 -6 28 -6 27 -14 -14 -8 -45 -29 -76 -48 -69 -18 6 -20 27 -3 27
9 0 16 8 15 18 0 10 -3 12 -6 5 -7 -18 -63 -17 -63 1 0 8 5 16 12 18 9 3 9 6
0 12 -7 4 -14 -3 -18 -19 -4 -18 -13 -25 -29 -25 -13 0 -27 5 -31 11 -5 8 -8
8 -14 0 -4 -7 -15 -12 -26 -12 -139 1 -152 3 -157 21 -4 14 -1 17 12 12 14 -5
14 -3 2 11 -27 33 -7 48 61 45 l63 -3 6 -45 c6 -43 6 -42 7 18 2 48 5 62 17
62 9 0 15 -9 15 -25z"/>
<path d="M748 3142 c-4 -12 -2 -25 4 -28 16 -10 22 4 11 28 l-10 22 -5 -22z"/>
<path d="M840 3120 c0 -11 5 -20 10 -20 6 0 10 9 10 20 0 11 -4 20 -10 20 -5
0 -10 -9 -10 -20z"/>
<path d="M485 3120 c4 -6 11 -8 16 -5 14 9 11 15 -7 15 -8 0 -12 -5 -9 -10z"/>
<path d="M530 3099 c0 -5 5 -7 10 -4 6 3 10 8 10 11 0 2 -4 4 -10 4 -5 0 -10
-5 -10 -11z"/>
<path d="M2562 3289 c-205 -16 -406 -70 -588 -159 -93 -45 -240 -137 -307
-192 l-28 -23 186 -225 c103 -124 202 -240 220 -257 26 -26 101 -114 111 -131
1 -2 24 12 51 31 412 296 990 158 1232 -294 123 -231 127 -531 10 -761 -11
-22 -19 -41 -17 -43 20 -18 688 -398 692 -394 2 2 20 37 40 76 193 387 226
838 89 1252 -37 114 -126 293 -198 402 -76 114 -237 286 -350 374 -325 254
-732 376 -1143 344z m9 -239 c18 -10 19 -23 19 -173 0 -114 -4 -167 -12 -175
-7 -7 -44 -12 -98 -12 -54 0 -91 5 -98 12 -8 8 -12 61 -12 175 0 144 2 163 18
172 22 14 158 14 183 1z m968 -64 c7 -9 11 -42 9 -87 -2 -61 -6 -74 -20 -77
-15 -3 -18 4 -18 49 0 81 -12 89 -137 89 -101 0 -115 4 -91 28 18 18 242 16
257 -2z m-1632 -16 c3 -11 9 -20 13 -20 5 0 12 9 15 20 8 25 35 27 35 3 1 -17
1 -17 11 0 12 20 49 23 67 5 9 -9 12 -9 12 0 0 7 18 11 50 11 43 -1 50 -4 51
-23 2 -20 2 -20 6 2 2 12 8 22 13 22 12 0 21 -30 15 -50 -4 -12 1 -19 15 -23
18 -4 20 0 20 34 0 38 1 39 35 39 40 0 46 -16 13 -30 -18 -7 -19 -9 -5 -9 9
-1 17 -5 17 -11 0 -5 -8 -10 -17 -11 -14 0 -13 -2 5 -9 42 -17 23 -30 -43 -30
-64 0 -65 0 -66 28 -2 26 -2 26 -6 2 -3 -22 -9 -25 -53 -27 -41 -2 -50 1 -50
15 -1 16 -2 16 -14 0 -7 -10 -23 -18 -34 -18 -12 0 -26 8 -31 18 -9 14 -10 15
-11 1 0 -18 -60 -23 -60 -5 0 6 -5 5 -12 -2 -22 -22 -28 -13 -28 38 0 39 3 50
16 50 9 0 18 -9 21 -20z m919 -1 c4 -8 9 -8 17 0 16 16 42 14 58 -5 11 -14 13
-14 21 0 6 10 23 15 53 14 l45 -1 1 -41 1 -41 15 43 c17 48 39 55 50 15 l7
-28 6 24 c10 43 30 37 30 -8 0 -34 3 -41 20 -41 11 0 20 -5 20 -11 0 -15 -71
-9 -91 8 -14 11 -18 11 -27 0 -12 -14 -39 -16 -59 -4 -6 4 -14 3 -18 -3 -9
-14 -31 -12 -48 5 -13 13 -16 13 -27 0 -14 -17 -46 -20 -55 -5 -5 8 -11 7 -21
-1 -18 -15 -64 -3 -64 16 0 17 16 20 25 5 3 -5 12 -10 18 -10 7 0 -1 11 -17
23 -20 16 -27 29 -23 40 7 19 52 23 63 6z m658 -35 c17 -16 23 -128 8 -150 -4
-7 -36 -24 -72 -39 -36 -15 -71 -29 -79 -32 -11 -5 -13 0 -9 20 5 26 4 27 -40
27 -66 0 -82 19 -82 93 0 91 8 97 146 97 89 0 116 -3 128 -16z m-1444 -145 c0
-24 4 -38 10 -34 6 3 10 22 10 41 0 34 0 34 45 34 31 0 47 -5 54 -17 10 -17
10 -17 11 0 0 9 7 17 15 17 8 0 15 -5 15 -12 0 -9 3 -9 12 0 34 34 86 -4 74
-54 -8 -32 -54 -44 -73 -19 -12 17 -13 17 -13 2 0 -9 -7 -17 -15 -17 -8 0 -15
7 -15 16 0 14 -1 14 -16 0 -18 -18 -64 -22 -64 -5 0 8 -5 8 -15 -1 -8 -7 -25
-10 -40 -6 -20 5 -25 13 -25 36 0 16 -4 32 -10 35 -6 4 -10 -10 -10 -34 0 -30
-4 -41 -15 -41 -11 0 -15 11 -15 36 0 23 -4 34 -12 32 -7 -3 -12 -18 -13 -34
0 -26 -4 -29 -30 -29 -27 0 -30 3 -32 35 -4 58 -1 60 87 60 l80 0 0 -41z m890
-3 c0 -19 5 -38 10 -41 6 -4 10 10 10 34 l0 41 45 0 c31 0 47 -5 54 -17 10
-17 10 -17 11 0 0 9 7 17 15 17 8 0 15 -8 15 -17 1 -17 1 -17 11 0 25 44 88 3
75 -49 -8 -32 -54 -44 -73 -19 -12 17 -13 17 -13 2 0 -9 -7 -17 -15 -17 -8 0
-15 7 -15 16 0 14 -1 14 -16 0 -17 -18 -50 -21 -59 -6 -4 6 -13 5 -25 -3 -28
-17 -54 2 -58 42 -5 45 -22 38 -22 -10 0 -52 -24 -48 -28 4 -2 20 -7 37 -13
37 -10 0 -12 -12 -10 -47 1 -11 -3 -24 -9 -28 -17 -11 -60 4 -60 20 0 18 12
19 28 3 7 -7 12 -8 12 -4 0 4 -10 16 -22 25 -13 11 -19 24 -15 33 4 13 23 16
86 17 l81 1 0 -34z m870 -124 c0 -26 -25 -56 -38 -48 -9 5 -8 15 3 37 17 33
35 38 35 11z m-53 -53 c32 -33 59 -64 61 -69 2 -4 -10 -12 -26 -18 -36 -12
-72 -49 -72 -73 0 -10 -7 -22 -16 -27 -15 -8 -15 -10 0 -15 19 -8 22 -37 3
-37 -7 0 -23 7 -36 16 -23 16 -25 16 -42 -7 l-19 -24 -30 33 c-29 32 -32 52
-7 52 17 0 111 180 109 207 -3 35 12 28 75 -38z m86 0 c-11 -12 -29 -19 -39
-17 -17 3 -16 6 9 32 21 21 31 26 40 17 8 -8 6 -17 -10 -32z m47 -22 c0 -13
-40 -37 -60 -37 -19 0 -10 27 13 38 31 15 47 14 47 -1z m-2 -103 c30 -34 29
-85 -2 -121 -19 -22 -32 -28 -66 -28 -95 0 -126 123 -42 170 36 20 81 11 110
-21z m-387 -251 l13 -38 6 35 c7 45 41 53 66 16 15 -24 15 -28 0 -51 -12 -19
-25 -25 -51 -25 -19 0 -35 5 -35 10 0 6 -9 10 -20 10 -11 0 -20 -4 -20 -10 0
-5 -4 -10 -10 -10 -14 0 -12 22 5 64 19 46 30 45 46 -1z m122 5 l14 -33 7 33
c7 32 26 45 26 18 0 -20 -29 -86 -38 -86 -9 0 -41 88 -34 95 9 9 12 6 25 -27z
m114 20 c-2 -7 -12 -12 -21 -12 -9 1 -16 -2 -16 -7 0 -5 7 -9 15 -9 8 0 15 -4
15 -10 0 -5 -7 -10 -15 -10 -8 0 -15 -4 -15 -10 0 -5 9 -10 20 -10 15 0 20 7
20 28 0 44 10 50 93 51 l77 1 0 -36 c0 -19 4 -33 9 -29 5 3 12 1 16 -5 8 -12
25 -13 25 -1 0 5 -9 11 -20 14 -24 6 -27 45 -4 54 9 3 25 1 35 -6 12 -7 19 -7
19 -1 0 5 5 10 10 10 6 0 10 -22 10 -50 0 -27 -4 -50 -10 -50 -5 0 -10 5 -10
10 0 6 -8 5 -20 -2 -16 -10 -24 -10 -39 -1 -15 9 -21 9 -23 1 -8 -23 -28 4
-28 38 0 21 -4 33 -10 29 -5 -3 -10 -22 -10 -41 0 -24 -4 -34 -12 -31 -7 2
-13 19 -14 38 0 19 -4 33 -9 32 -15 -3 -23 -37 -12 -51 16 -20 -1 -27 -22 -8
-16 15 -19 15 -24 1 -4 -10 -20 -15 -47 -15 l-40 0 0 50 c0 49 1 50 31 50 20
0 29 -4 26 -12z m323 -15 l14 -28 4 28 c6 46 22 30 22 -23 0 -57 -9 -62 -39
-22 l-20 27 -1 -28 c0 -16 -4 -26 -10 -22 -11 7 -14 78 -3 88 12 12 20 7 33
-20z m115 -23 c0 -35 -4 -45 -18 -48 -26 -5 -47 16 -47 47 0 33 18 53 45 49
17 -3 20 -11 20 -48z m-403 -147 c4 -51 28 -56 28 -6 0 38 1 39 40 40 30 2 43
-3 55 -20 l15 -21 0 22 c0 12 5 22 10 22 6 0 10 -7 10 -15 0 -20 16 -19 24 1
10 25 49 13 60 -19 18 -51 -26 -86 -65 -51 -17 16 -19 16 -19 1 0 -10 -4 -17
-10 -17 -5 0 -10 10 -10 22 l0 22 -16 -22 c-19 -27 -64 -30 -64 -4 -1 16 -1
16 -11 0 -20 -36 -69 -15 -69 29 0 14 -6 23 -15 23 -10 0 -15 -11 -15 -35 0
-19 -4 -35 -10 -35 -5 0 -10 16 -10 36 0 30 -3 34 -19 29 -11 -3 -22 -1 -26 5
-8 13 -25 13 -25 0 0 -5 6 -10 14 -10 7 0 19 -7 26 -15 17 -20 -5 -47 -34 -43
-16 2 -21 11 -23 38 -1 19 -1 40 1 46 3 6 35 12 79 12 l76 2 3 -37z m356 -460
l3 -123 -176 0 -175 0 0 118 c0 65 3 122 7 126 4 3 81 5 172 4 l166 -3 3 -122z
m42 -141 c0 -28 -30 -32 -215 -32 -185 0 -215 4 -215 32 0 4 97 8 215 8 118 0
215 -4 215 -8z m-172 -99 c2 -8 -6 -13 -20 -14 l-23 0 25 -11 c25 -11 25 -11
3 -15 -28 -5 -30 -23 -3 -23 11 0 20 -4 20 -10 0 -5 -13 -10 -30 -10 -28 0
-30 3 -31 38 l-2 37 -10 -37 c-12 -43 -24 -48 -37 -15 l-9 22 -7 -22 c-6 -23
-19 -30 -28 -15 -12 19 -18 82 -7 82 6 0 11 -7 11 -15 0 -8 5 -15 10 -15 6 0
10 7 10 15 0 20 17 19 29 -2 9 -16 10 -17 11 -1 0 26 79 36 88 11z m58 9 c17
-11 25 -67 11 -81 -6 -6 -21 -11 -34 -11 -20 0 -23 5 -23 43 0 55 15 70 46 49z
m-159 -161 c6 -1 13 -15 15 -33 4 -46 28 -49 28 -4 0 20 5 36 11 36 6 0 9 -17
7 -42 -3 -37 -7 -44 -27 -46 -26 -4 -41 12 -41 46 0 13 -6 22 -16 22 -11 0
-15 -8 -12 -32 2 -19 -2 -33 -9 -35 -9 -3 -13 7 -13 32 0 30 -3 36 -16 31 -9
-4 -22 -2 -29 4 -8 6 -16 7 -19 2 -3 -5 6 -14 20 -21 35 -16 28 -46 -10 -46
-16 0 -31 6 -34 13 -3 9 4 11 25 7 l28 -6 -27 16 c-29 16 -35 34 -18 51 7 7
79 10 137 5z m124 -1 c19 -11 25 -43 13 -74 -4 -10 -18 -16 -35 -16 -28 0 -29
2 -29 44 0 38 6 50 28 55 2 1 12 -4 23 -9z m123 -9 c34 -37 -1 -100 -41 -75
-25 15 -28 52 -7 75 9 10 20 19 24 19 4 0 15 -9 24 -19z m-74 -36 c0 -25 -4
-45 -10 -45 -5 0 -10 20 -10 45 0 25 5 45 10 45 6 0 10 -20 10 -45z"/>
<path d="M2401 3004 c0 -11 3 -14 6 -6 3 7 2 16 -1 19 -3 4 -6 -2 -5 -13z"/>
<path d="M2480 3011 c0 -5 18 -11 40 -13 28 -2 40 0 40 9 0 8 -14 13 -40 13
-22 0 -40 -4 -40 -9z"/>
<path d="M2400 2845 l0 -126 78 3 77 3 3 123 3 122 -81 0 -80 0 0 -125z m98
-88 c4 -21 -25 -34 -40 -19 -8 8 -8 16 2 27 16 19 34 15 38 -8z"/>
<path d="M2004 2956 c-8 -21 3 -49 16 -41 5 3 10 15 10 25 0 25 -18 36 -26 16z"/>
<path d="M2790 2952 c0 -6 9 -12 20 -15 11 -3 20 -3 20 -1 0 2 -9 8 -20 14
-11 6 -20 7 -20 2z"/>
<path d="M2860 2930 c0 -16 4 -30 9 -30 12 0 24 37 16 50 -12 20 -25 10 -25
-20z"/>
<path d="M2944 2945 c-4 -8 -4 -22 0 -30 5 -13 9 -13 26 -3 11 7 20 15 20 18
0 3 -9 11 -20 18 -17 10 -21 10 -26 -3z"/>
<path d="M1900 2800 c0 -5 5 -10 11 -10 5 0 7 5 4 10 -3 6 -8 10 -11 10 -2 0
-4 -4 -4 -10z"/>
<path d="M2120 2786 c0 -14 5 -26 10 -26 6 0 10 9 10 19 0 11 -4 23 -10 26 -6
4 -10 -5 -10 -19z"/>
<path d="M2234 2796 c-8 -21 3 -49 16 -41 5 3 10 15 10 25 0 25 -18 36 -26 16z"/>
<path d="M1895 2760 c3 -5 8 -10 11 -10 2 0 4 5 4 10 0 6 -5 10 -11 10 -5 0
-7 -4 -4 -10z"/>
<path d="M2790 2790 c0 -5 5 -10 11 -10 5 0 7 5 4 10 -3 6 -8 10 -11 10 -2 0
-4 -4 -4 -10z"/>
<path d="M3010 2775 c0 -14 5 -25 10 -25 6 0 10 11 10 25 0 14 -4 25 -10 25
-5 0 -10 -11 -10 -25z"/>
<path d="M3124 2786 c-8 -21 3 -49 16 -41 5 3 10 15 10 25 0 25 -18 36 -26 16z"/>
<path d="M3658 2529 c-20 -38 -36 -69 -34 -69 2 0 24 27 49 59 36 45 44 61 34
69 -9 8 -21 -7 -49 -59z"/>
<path d="M3751 2424 c0 -11 3 -14 6 -6 3 7 2 16 -1 19 -3 4 -6 -2 -5 -13z"/>
<path d="M3820 2424 c0 -8 5 -12 10 -9 6 4 8 11 5 16 -9 14 -15 11 -15 -7z"/>
<path d="M3861 2424 c0 -11 3 -14 6 -6 3 7 2 16 -1 19 -3 4 -6 -2 -5 -13z"/>
<path d="M3785 2420 c3 -5 8 -10 11 -10 2 0 4 5 4 10 0 6 -5 10 -11 10 -5 0
-7 -4 -4 -10z"/>
<path d="M3532 2218 c2 -13 8 -23 13 -23 6 0 11 10 13 23 2 15 -2 22 -13 22
-11 0 -15 -7 -13 -22z"/>
<path d="M3760 2240 c0 -5 5 -10 11 -10 5 0 7 5 4 10 -3 6 -8 10 -11 10 -2 0
-4 -4 -4 -10z"/>
<path d="M3930 2243 c0 -5 11 -13 25 -20 29 -13 33 -6 8 13 -20 15 -33 18 -33
7z"/>
<path d="M4124 2236 c-8 -21 2 -46 18 -46 9 0 9 3 0 12 -8 8 -8 15 -1 24 7 8
7 14 -1 19 -5 3 -13 -1 -16 -9z"/>
<path d="M3847 2084 c-4 -4 -7 -18 -7 -31 0 -28 23 -27 28 1 4 20 -11 40 -21
30z"/>
<path d="M3954 2075 c-8 -21 3 -47 19 -43 6 3 13 14 15 25 4 24 -26 40 -34 18z"/>
<path d="M3615 2040 c3 -5 11 -10 16 -10 6 0 7 5 4 10 -3 6 -11 10 -16 10 -6
0 -7 -4 -4 -10z"/>
<path d="M3794 1707 c-3 -8 -4 -54 -2 -103 l3 -89 153 -3 152 -3 0 106 0 105
-150 0 c-116 0 -152 -3 -156 -13z m291 -92 l0 -90 -140 0 -140 0 -3 79 c-2 44
-1 85 2 93 5 11 34 13 143 11 l138 -3 0 -90z"/>
<path d="M4020 1320 c0 -5 7 -10 16 -10 8 0 12 5 9 10 -3 6 -10 10 -16 10 -5
0 -9 -4 -9 -10z"/>
<path d="M3980 1175 c0 -16 6 -25 15 -25 9 0 15 9 15 25 0 16 -6 25 -15 25 -9
0 -15 -9 -15 -25z"/>
<path d="M4093 1184 c-7 -18 11 -39 26 -30 17 11 13 46 -4 46 -9 0 -18 -7 -22
-16z"/>
<path d="M660 2655 c0 -43 3 -75 6 -72 8 7 6 138 -1 146 -3 2 -5 -31 -5 -74z"/>
<path d="M280 2630 c0 -29 2 -51 4 -49 8 8 10 88 3 95 -4 4 -7 -17 -7 -46z"/>
<path d="M348 2668 c6 -7 12 -31 15 -53 l4 -40 1 46 c2 35 -2 48 -14 53 -13 5
-14 3 -6 -6z"/>
<path d="M417 2673 c6 -5 14 -29 16 -53 l4 -45 -1 49 c-1 35 -5 51 -16 53 -10
3 -11 2 -3 -4z"/>
<path d="M526 2673 c6 -4 11 -26 12 -47 1 -21 4 -41 7 -45 4 -3 5 16 3 43 -2
34 -8 51 -18 53 -10 3 -11 2 -4 -4z"/>
<path d="M583 2628 c0 -38 1 -42 4 -16 3 24 12 43 26 53 12 8 16 15 10 15 -7
0 -15 -5 -19 -11 -5 -8 -8 -8 -14 0 -4 7 -7 -12 -7 -41z"/>
<path d="M716 2664 c-5 -14 -4 -15 9 -4 17 14 19 20 6 20 -5 0 -12 -7 -15 -16z"/>
<path d="M832 2658 c7 -15 15 -23 17 -17 2 6 -4 18 -13 27 -15 15 -15 15 -4
-10z"/>
<path d="M981 2628 c-1 -29 0 -50 2 -48 7 7 12 88 6 94 -3 3 -7 -18 -8 -46z"/>
<path d="M1047 2673 c6 -5 14 -29 16 -53 l4 -45 -1 49 c-1 35 -5 51 -16 53
-10 3 -11 2 -3 -4z"/>
<path d="M1105 2669 c-11 -16 -1 -19 13 -3 7 8 8 14 3 14 -5 0 -13 -5 -16 -11z"/>
<path d="M1186 2671 c-4 -5 -3 -16 0 -25 14 -36 -44 -62 -76 -33 -12 10 -12 9
-1 -5 30 -40 93 -7 89 45 -3 29 -4 32 -12 18z"/>
<path d="M470 2624 c-11 -12 -10 -18 5 -32 18 -16 18 -16 5 2 -13 16 -12 20 5
32 10 8 14 14 8 14 -6 0 -16 -7 -23 -16z"/>
<path d="M710 2613 c13 -18 25 -33 27 -33 8 0 -17 38 -33 51 -11 9 -9 2 6 -18z"/>
<path d="M772 2594 c10 -10 20 -16 22 -13 3 3 -5 11 -17 18 -21 13 -21 12 -5
-5z"/>
<path d="M883 2600 c2 -8 12 -16 23 -17 13 -2 15 -1 4 4 -8 3 -19 11 -23 17
-6 7 -7 6 -4 -4z"/>
<path d="M820 2590 c-9 -6 -10 -10 -3 -10 6 0 15 5 18 10 8 12 4 12 -15 0z"/>
<path d="M1190 2592 c0 -6 -7 -18 -16 -26 -8 -9 -11 -16 -5 -16 13 0 35 39 27
48 -3 3 -6 0 -6 -6z"/>
<path d="M613 2460 c0 -41 2 -58 4 -37 2 20 2 54 0 75 -2 20 -4 3 -4 -38z"/>
<path d="M980 2498 c0 -25 -3 -29 -12 -20 -24 24 -79 8 -78 -22 0 -6 5 -3 11
7 12 21 52 22 69 2 7 -8 10 -25 6 -39 -3 -14 -2 -28 4 -31 6 -4 10 20 10 64 0
39 -2 71 -5 71 -3 0 -5 -14 -5 -32z"/>
<path d="M509 2473 c-13 -16 -12 -17 3 -4 10 7 29 11 43 9 13 -3 22 -1 19 3
-9 15 -51 10 -65 -8z"/>
<path d="M655 2470 c-15 -16 -17 -26 -9 -47 5 -14 16 -29 24 -31 11 -4 10 -1
-3 12 -44 45 16 106 63 64 12 -11 12 -10 1 5 -18 23 -54 22 -76 -3z"/>
<path d="M772 2458 c-2 -42 6 -68 20 -68 7 0 7 4 0 13 -6 7 -12 30 -15 52 l-4
40 -1 -37z"/>
<path d="M848 2444 c-2 -25 0 -48 4 -50 5 -3 8 18 8 45 0 64 -7 66 -12 5z"/>
<path d="M491 2442 c-1 -20 18 -52 32 -52 9 0 9 2 0 8 -7 4 -16 19 -22 32 -5
14 -10 19 -10 12z"/>
<path d="M741 2438 c-1 -9 -8 -24 -17 -32 -8 -9 -11 -16 -5 -16 14 0 34 38 27
53 -2 7 -5 5 -5 -5z"/>
<path d="M890 2424 c0 -13 18 -39 24 -34 2 3 -2 14 -10 24 -8 11 -14 16 -14
10z"/>
<path d="M2649 1993 c-13 -16 -12 -17 4 -4 16 13 21 21 13 21 -2 0 -10 -8 -17
-17z"/>
<path d="M1078 1943 c7 -3 16 -2 19 1 4 3 -2 6 -13 5 -11 0 -14 -3 -6 -6z"/>
<path d="M1338 1893 c7 -3 16 -2 19 1 4 3 -2 6 -13 5 -11 0 -14 -3 -6 -6z"/>
<path d="M1388 1883 c7 -3 16 -2 19 1 4 3 -2 6 -13 5 -11 0 -14 -3 -6 -6z"/>
<path d="M1598 1843 c7 -3 16 -2 19 1 4 3 -2 6 -13 5 -11 0 -14 -3 -6 -6z"/>
<path d="M1648 1833 c7 -3 16 -2 19 1 4 3 -2 6 -13 5 -11 0 -14 -3 -6 -6z"/>
<path d="M2495 1649 c-4 -6 -5 -12 -2 -15 2 -3 7 2 10 11 7 17 1 20 -8 4z"/>
<path d="M2613 1633 c53 -2 141 -2 195 0 53 1 9 3 -98 3 -107 0 -151 -2 -97
-3z"/>
<path d="M1642 1550 c0 -19 2 -27 5 -17 2 9 2 25 0 35 -3 9 -5 1 -5 -18z"/>
<path d="M1242 1550 c0 -14 2 -19 5 -12 2 6 2 18 0 25 -3 6 -5 1 -5 -13z"/>
<path d="M1283 1365 c0 -22 2 -30 4 -17 2 12 2 30 0 40 -3 9 -5 -1 -4 -23z"/>
<path d="M1478 1373 c7 -3 16 -2 19 1 4 3 -2 6 -13 5 -11 0 -14 -3 -6 -6z"/>
<path d="M1620 1361 c0 -11 3 -22 8 -24 4 -3 7 6 7 19 0 13 -3 24 -7 24 -5 0
-8 -9 -8 -19z"/>
<path d="M1708 1373 c7 -3 16 -2 19 1 4 3 -2 6 -13 5 -11 0 -14 -3 -6 -6z"/>
<path d="M1541 1324 c0 -11 3 -14 6 -6 3 7 2 16 -1 19 -3 4 -6 -2 -5 -13z"/>
<path d="M1213 1195 c0 -22 2 -30 4 -17 2 12 2 30 0 40 -3 9 -5 -1 -4 -23z"/>
<path d="M1588 1213 c7 -3 16 -2 19 1 4 3 -2 6 -13 5 -11 0 -14 -3 -6 -6z"/>
<path d="M1588 1173 c7 -3 16 -2 19 1 4 3 -2 6 -13 5 -11 0 -14 -3 -6 -6z"/>
<path d="M1764 1124 c-18 -14 -18 -15 4 -4 12 6 22 13 22 15 0 8 -5 6 -26 -11z"/>
<path d="M1624 1044 c-18 -14 -18 -15 4 -4 12 6 22 13 22 15 0 8 -5 6 -26 -11z"/>
<path d="M1580 1020 c-9 -6 -10 -10 -3 -10 6 0 15 5 18 10 8 12 4 12 -15 0z"/>
</g>
</svg>
