<?xml version="1.0" encoding="UTF-8"?> <svg xmlns="http://www.w3.org/2000/svg" id="Capa_1" data-name="Capa 1" viewBox="0 0 803.31 106.83"><defs><style> .cls-1 { fill: #fff; } .cls-2 { fill: #4b59dc; } </style></defs><path class="cls-1" d="M539.72,24.46c-3.69-1.44-7.55-2.16-11.59-2.16-8.67,0-16.09,3.08-22.25,9.24-6.16,6.16-9.23,13.57-9.23,22.24s3.08,16.16,9.23,22.31c6.16,6.16,13.57,9.23,22.25,9.23,4.04,0,7.91-.74,11.59-2.22,3.77-1.48,7.1-3.57,9.98-6.27l13.28,14.22c-4.76,4.49-10.11,7.91-16.04,10.25-6.02,2.38-12.29,3.57-18.81,3.57-14.07,0-26.09-4.99-36.06-14.97-9.98-9.98-14.96-22.02-14.96-36.13s4.99-26.09,14.96-36.06c9.98-9.98,22-14.96,36.06-14.96,6.52,0,12.78,1.19,18.81,3.57,5.93,2.34,11.28,5.75,16.04,10.25l-13.28,14.22c-2.88-2.7-6.2-4.81-9.98-6.34Z"></path><path class="cls-1" d="M570.97,53.9c0-28.13,22.91-51.1,50.92-51.1s50.98,22.97,50.98,51.1-22.97,50.73-51.04,50.73-50.86-22.85-50.86-50.73Zm81.97-.12c0-17.13-13.98-31.11-31.11-31.11s-30.99,13.97-30.99,31.11,13.91,30.93,30.99,30.93,31.11-13.91,31.11-30.93Z"></path><path class="cls-1" d="M54.62,43.44h51.1v9.77c0,14.11-4.99,26.15-14.96,36.13-9.98,9.98-22.02,14.97-36.13,14.97s-26.09-4.99-36.06-14.97c-9.98-9.98-14.96-22.02-14.96-36.13s4.99-26.09,14.96-36.06S40.55,2.19,54.62,2.19c6.74,0,13.23,1.28,19.48,3.84,6.2,2.56,11.71,6.23,16.52,10.99l-13.75,13.82c-2.97-2.92-6.36-5.19-10.18-6.81-3.77-1.53-7.8-2.29-12.07-2.29-8.67,0-16.09,3.08-22.24,9.24-6.16,6.16-9.23,13.57-9.23,22.24s3.08,16.16,9.23,22.31c6.16,6.16,13.57,9.23,22.24,9.23s16.15-3.08,22.31-9.23c3.55-3.59,6.11-7.77,7.68-12.54h-30v-19.55Z"></path><path class="cls-1" d="M195.5,2.58V63.88c0,11.3-3.97,20.96-11.97,28.96-8.02,8.02-17.67,11.99-28.9,11.99s-20.93-3.97-28.95-11.99c-8.02-8-11.99-17.66-11.99-28.96V2.58h20.51V63.82c0,5.63,2,10.41,5.99,14.39,3.97,3.97,8.76,5.99,14.37,5.99s10.36-2.02,14.39-5.99c4.03-3.98,6.05-8.76,6.05-14.39V2.58h20.5Z"></path><path class="cls-1" d="M355.88,58.78V2.58h20.38V106.14l-61-58.16v56.28h-20.38V.69l61,58.1Z"></path><path class="cls-1" d="M733.8,84.07c5.72-.22,10.28-4.67,10.28-10.28,0-4.34-1.69-7.12-5.16-8.39-7.34-2.71-5.56-2.09-12.7-4.55-7.49-2.59-14.45-7.69-19.11-14.08-2.77-3.77-4.16-8.44-4.16-14.06,0-8.43,3.03-15.71,9.08-21.75,6.05-6.06,13.31-9.1,21.84-9.1s15.7,3.04,21.76,9.1c6.05,6.04,9.08,13.31,9.08,21.75h-20.51c0-5.54-4.65-10.21-10.2-10.21s-10.3,4.67-10.3,10.28c0,3.66,1.46,6.45,4.43,8.33,6.05,3.92,5.36,3.15,12.62,5.31,7.8,2.27,14.88,7.12,19.73,13.37,2.85,3.66,4.29,8.4,4.29,14.14,0,8.51-3.03,15.77-9.1,21.82-6.05,6.05-13.3,9.08-21.76,9.08s-15.76-3.03-21.81-9.08c-6.08-6.05-9.1-13.31-9.1-21.82h20.56c0,5.66,4.24,10.13,9.93,10.13"></path><path class="cls-1" d="M788.25,2.34c8.63,0,15.34,6.7,15.34,15.06s-6.7,15.15-15.43,15.15-15.52-6.61-15.52-15.15,6.89-15.06,15.52-15.06h.09Zm-.18,3.03c-6.61,0-11.57,5.42-11.57,12.03s4.96,12.03,11.76,12.03c6.61,.09,11.48-5.33,11.48-12.03s-4.87-12.03-11.57-12.03h-.09Zm-2.3,19.84h-3.49V10.24c1.38-.28,3.31-.55,5.79-.55,2.85,0,4.13,.46,5.24,1.19,.83,.64,1.47,1.84,1.47,3.21,0,1.74-1.29,3.03-3.12,3.58v.18c1.47,.46,2.3,1.65,2.75,3.67,.46,2.3,.74,3.21,1.1,3.67h-3.77c-.46-.55-.73-1.84-1.19-3.58-.28-1.65-1.19-2.39-3.12-2.39h-1.65v5.97Zm.09-8.45h1.65c1.93,0,3.49-.64,3.49-2.2,0-1.38-1.01-2.3-3.21-2.3-.92,0-1.56,.09-1.93,.18v4.32Z"></path><path class="cls-1" d="M413.1,89.02c-2.27,5.16-4.58,10.25-6.91,15.39h-21.9L430.41,1.09l46.23,103.32h-21.95c-2.28-5.1-4.54-10.27-6.82-15.38h-34.63m26.32-17.98l-8.96-21.14-9.03,21.14h17.99Z"></path><path class="cls-1" d="M695.73,2.58l-.08,30.22h-15.28l-5-30.02-.03-.2h20.39Z"></path><path class="cls-1" d="M223.59,88.55c-2.28,5.19-4.6,10.3-6.94,15.46h-21.9L240.87,.69l46.23,103.32h-21.95c-2.28-5.1-4.54-10.27-6.82-15.38h-34.63l-.12-.08Zm26.44-17.91l-8.96-21.14-9.03,21.14h17.99Z"></path><g><polygon class="cls-2" points="638.05 27.26 654.23 14.48 656.35 43.82 638.05 27.26"></polygon><polyline class="cls-2" points="54.62 43.44 73.49 43.44 54.62 62.99"></polyline><polyline class="cls-2" points="113.69 2.58 134.21 2.58 134.21 26.52"></polyline><polyline class="cls-2" points="384.29 104.4 406.19 104.4 405.15 82.08"></polyline><polyline class="cls-2" points="194.75 104 216.65 104 215.61 81.68"></polyline><polygon class="cls-2" points="549.7 76.83 562.97 91.06 538.7 96.74 549.7 76.83"></polygon><polyline class="cls-2" points="355.88 2.58 376.25 2.58 376.25 26.52"></polyline><polygon class="cls-2" points="675.34 2.58 695.73 2.58 695.68 25.07 675.34 2.58"></polygon><path class="cls-2" d="M703.02,73.93c-.01-.12,20.56,0,20.56,0l.18,19.71-20.74-19.71Z"></path></g></svg> 